<svg width="24" height="24" viewBox="0 0 24 24" fill="none" xmlns="http://www.w3.org/2000/svg">
<path d="M11.5 12C14.8852 12 17.625 9.31607 17.625 6C17.625 2.68393 14.8852 0 11.5 0C8.11484 0 5.375 2.68393 5.375 6C5.375 9.31607 8.11484 12 11.5 12ZM11.5 1.71429C13.9117 1.71429 15.875 3.6375 15.875 6C15.875 8.3625 13.9117 10.2857 11.5 10.2857C9.08828 10.2857 7.125 8.3625 7.125 6C7.125 3.6375 9.08828 1.71429 11.5 1.71429ZM15.8805 13.0714C14.0539 13.0714 13.6 13.7143 11.5 13.7143C9.4 13.7143 8.94609 13.0714 7.11953 13.0714C5.13437 13.0714 3.20391 13.9393 2.07187 15.5839C1.39375 16.5696 1 17.7536 1 19.0286V21.4286C1 22.8482 2.17578 24 3.625 24H19.375C20.8242 24 22 22.8482 22 21.4286V19.0286C22 17.7536 21.6062 16.5696 20.9281 15.5839C19.7961 13.9393 17.8656 13.0714 15.8805 13.0714ZM20.25 21.4286C20.25 21.9 19.8562 22.2857 19.375 22.2857H3.625C3.14375 22.2857 2.75 21.9 2.75 21.4286V19.0286C2.75 18.1393 3.01797 17.2768 3.52109 16.5429C4.27578 15.4446 5.62109 14.7857 7.11406 14.7857C8.6125 14.7857 9.14844 15.4286 11.5 15.4286C13.8516 15.4286 14.3875 14.7857 15.8805 14.7857C17.3734 14.7857 18.7188 15.4446 19.4734 16.5429C19.9766 17.2768 20.2445 18.1393 20.2445 19.0286V21.4286H20.25Z" fill="#A2A9AD"/>
</svg>
