<svg width="24" height="24" viewBox="0 0 24 24" fill="none" xmlns="http://www.w3.org/2000/svg">
<path d="M21.4536 0H3.28328C2.80379 0 2.4 0.403786 2.4 0.883281V22.6372C2.4 23.0662 2.62713 23.47 3.00568 23.6719C3.38423 23.8738 3.83849 23.8486 4.1918 23.6215L6.28644 22.2082L8.68391 23.7981C8.88581 23.9243 9.11294 24 9.34007 24C9.56719 24 9.79432 23.9243 9.97098 23.7981L12.3685 22.2082L14.7659 23.7981C15.1697 24.0505 15.6744 24.0505 16.053 23.7981L18.4505 22.2082L20.5451 23.6215C20.8984 23.8486 21.3527 23.8738 21.7312 23.6719C22.1098 23.47 22.3369 23.0662 22.3369 22.6372V0.883281C22.3369 0.403786 21.9331 0 21.4536 0ZM20.5704 21.5016L19.0562 20.4921C18.6776 20.2397 18.1729 20.2397 17.7691 20.4921L15.3968 22.082L12.9994 20.4921C12.8227 20.3659 12.5956 20.3155 12.3685 20.3155C12.1413 20.3155 11.9142 20.3912 11.7375 20.5174L9.34007 22.082L6.96783 20.4921C6.58928 20.2397 6.08454 20.2397 5.68076 20.4921L4.16656 21.5016V1.76656H20.5704V21.5016Z" fill="#A2A9AD"/>
<path d="M11.8637 9.89313V10.3979C11.8637 10.524 11.9647 10.6502 12.1161 10.6502H12.7218C12.8479 10.6502 12.9741 10.5493 12.9741 10.3979V9.91837C13.4284 9.84266 13.7817 9.666 14.0341 9.3884C14.3117 9.08556 14.4631 8.70701 14.4631 8.22752C14.4631 8.10133 14.4631 7.97515 14.4378 7.87421C14.4126 7.77326 14.3874 7.67231 14.3621 7.57137C14.3369 7.47042 14.2864 7.39471 14.2107 7.319C14.1602 7.24329 14.0845 7.16758 14.0341 7.11711C13.9836 7.06663 13.9079 6.99092 13.8069 6.94045C13.706 6.88998 13.6303 6.8395 13.5546 6.78903C13.4789 6.73856 13.3779 6.71332 13.2517 6.66285C13.1255 6.61238 13.0246 6.58714 12.9237 6.5619C12.8227 6.53667 12.7218 6.48619 12.5703 6.46096C12.2675 6.36001 12.0656 6.2843 11.9394 6.18335C11.8385 6.10764 11.788 6.03193 11.788 5.93099C11.788 5.83004 11.8385 5.75433 11.9142 5.70386C12.0151 5.62815 12.1413 5.60291 12.318 5.60291C12.6713 5.60291 13.0246 5.72909 13.4031 5.98146C13.5041 6.05717 13.6555 6.03193 13.7312 5.93099L14.2107 5.32531C14.2612 5.27484 14.2612 5.19913 14.2612 5.14865C14.2612 5.07294 14.2107 5.02247 14.1602 4.99723C13.9836 4.87105 13.8069 4.7701 13.605 4.66916C13.3779 4.56821 13.1508 4.4925 12.9237 4.44203V3.83635C12.9237 3.71017 12.8227 3.58398 12.6713 3.58398H12.1161C11.9899 3.58398 11.8637 3.68493 11.8637 3.83635V4.39156C11.4095 4.46726 11.0561 4.64392 10.8038 4.92152C10.5262 5.22436 10.3748 5.60291 10.3748 6.05717C10.3748 6.15812 10.3748 6.25906 10.4 6.36001C10.4252 6.46096 10.4505 6.5619 10.4757 6.63761C10.5009 6.71332 10.5514 6.78903 10.6019 6.86474C10.6524 6.94045 10.7028 7.01616 10.7785 7.06663C10.829 7.11711 10.9047 7.19282 10.9552 7.21805C11.0309 7.26853 11.1066 7.319 11.1823 7.36947C11.258 7.41995 11.3337 7.44518 11.4095 7.49566C11.4852 7.52089 11.5609 7.57137 11.6618 7.5966C11.7628 7.62184 11.8385 7.67231 11.9142 7.69755C11.9899 7.72278 12.0908 7.74802 12.1918 7.77326C12.2927 7.79849 12.3937 7.84897 12.4694 7.87421C12.5451 7.89944 12.6208 7.92468 12.6965 7.97515C12.747 8.00039 12.8227 8.02562 12.8479 8.0761C12.8732 8.10133 12.9237 8.12657 12.9489 8.17704C12.9741 8.20228 12.9994 8.22752 12.9994 8.27799C12.9994 8.30323 13.0246 8.3537 13.0246 8.40417C13.0246 8.53036 12.9741 8.60607 12.8984 8.68178C12.6713 8.85843 12.2423 8.8332 11.788 8.65654C11.5861 8.58083 11.3842 8.45465 11.2076 8.30323C11.1571 8.25275 11.0814 8.22752 11.0309 8.25275C10.9552 8.25275 10.9047 8.27799 10.8543 8.32846L10.3495 8.93414C10.2738 9.03509 10.2738 9.18651 10.3748 9.26222C10.7785 9.53982 11.2833 9.79219 11.8637 9.89313Z" fill="#A2A9AD"/>
<path d="M7.32113 14.1582H17.4158C17.8953 14.1582 18.2991 13.7544 18.2991 13.2749C18.2991 12.7954 17.8953 12.3916 17.4158 12.3916H7.32113C6.84164 12.3916 6.43785 12.7954 6.43785 13.2749C6.43785 13.7544 6.84164 14.1582 7.32113 14.1582Z" fill="#A2A9AD"/>
<path d="M7.32113 17.9687H17.4158C17.8953 17.9687 18.2991 17.5649 18.2991 17.0854C18.2991 16.6059 17.8953 16.2021 17.4158 16.2021H7.32113C6.84164 16.2021 6.43785 16.6059 6.43785 17.0854C6.43785 17.5649 6.84164 17.9687 7.32113 17.9687Z" fill="#A2A9AD"/>
</svg>
