<svg width="24" height="24" viewBox="0 0 24 24" fill="none" xmlns="http://www.w3.org/2000/svg">
<path d="M16.187 0.778381L4.96402 12.0216L9.53956 16.6054L11.1367 15.0054L8.15827 12.0216L16.6187 3.54595C19.6834 5.18919 21.7122 8.43243 21.7122 12.1513C21.7122 17.5567 17.3525 21.9243 11.9568 21.9243C11.5683 21.9243 11.223 21.8811 10.8345 21.8378L9.06474 23.654C10.0144 23.9135 11.0072 24 12 24C18.6043 24 24 18.6378 24 11.9784C24 6.87567 20.7194 2.46487 16.187 0.778381Z" fill="#A2A7AB"/>
<path d="M18.9928 12.0216L14.4173 7.43783L12.8201 9.03783L15.7986 12.0216L7.20863 20.627C4.27338 18.9405 2.2446 15.7838 2.2446 12.1513C2.2446 6.74594 6.60432 2.37838 12 2.37838C12.3022 2.37838 12.6043 2.37838 12.9065 2.42162L14.9784 0.345946C13.9856 0.12973 12.9928 0 12 0C5.35252 0 0 5.36216 0 12.0216C0 17.1676 3.23741 21.5784 7.76978 23.2648L18.9928 12.0216Z" fill="#A2A7AB"/>
</svg>
