<svg width="24" height="24" viewBox="0 0 24 24" fill="none" xmlns="http://www.w3.org/2000/svg">
<path d="M20.25 1H3.75C2.2332 1 1 2.2332 1 3.75V16.125C1 17.6418 2.2332 18.875 3.75 18.875H7.875V22.4844C7.875 22.7895 8.12422 23 8.39062 23C8.49375 23 8.60117 22.9699 8.6957 22.8969L14.0625 18.875H20.25C21.7668 18.875 23 17.6418 23 16.125V3.75C23 2.2332 21.7668 1 20.25 1ZM21.625 16.125C21.625 16.8813 21.0063 17.5 20.25 17.5H13.6027L13.2375 17.775L9.25 20.7656V17.5H3.75C2.99375 17.5 2.375 16.8813 2.375 16.125V3.75C2.375 2.99375 2.99375 2.375 3.75 2.375H20.25C21.0063 2.375 21.625 2.99375 21.625 3.75V16.125ZM6.5 8.90625C5.92852 8.90625 5.46875 9.36602 5.46875 9.9375C5.46875 10.509 5.92852 10.9688 6.5 10.9688C7.07148 10.9688 7.53125 10.509 7.53125 9.9375C7.53125 9.36602 7.07148 8.90625 6.5 8.90625ZM12 8.90625C11.4285 8.90625 10.9688 9.36602 10.9688 9.9375C10.9688 10.509 11.4285 10.9688 12 10.9688C12.5715 10.9688 13.0312 10.509 13.0312 9.9375C13.0312 9.36602 12.5715 8.90625 12 8.90625ZM17.5 8.90625C16.9285 8.90625 16.4688 9.36602 16.4688 9.9375C16.4688 10.509 16.9285 10.9688 17.5 10.9688C18.0715 10.9688 18.5312 10.509 18.5312 9.9375C18.5312 9.36602 18.0715 8.90625 17.5 8.90625Z" fill="#A2A9AD"/>
</svg>
