<svg width="24" height="24" viewBox="0 0 24 24" fill="none" xmlns="http://www.w3.org/2000/svg">
<path d="M23.0311 19.1553H21.4658C21.0186 18.3354 20.2733 17.6646 19.3789 17.441V6.18634C19.3789 5.6646 18.9317 5.21739 18.4099 5.21739H13.4162H9.01863H4.99379V0.968944C4.99379 0.447204 4.54658 0 4.02484 0H0.968944C0.447204 0 0 0.447204 0 0.968944C0 1.49068 0.447204 1.93789 0.968944 1.93789H3.13043V6.18634V17.441C1.71428 17.8137 0.670806 19.0807 0.670806 20.646C0.670806 22.5093 2.16149 24 4.02484 24C5.73913 24 7.15528 22.7329 7.37888 21.0932H14.9814C15.205 22.7329 16.6211 24 18.3354 24C20.0497 24 21.4658 22.7329 21.6894 21.0932H22.9565C23.4783 21.0932 23.9255 20.646 23.9255 20.1242C23.9255 19.6025 23.4783 19.1553 23.0311 19.1553ZM18.3354 22.0621C17.5155 22.0621 16.8447 21.3913 16.8447 20.5714C16.8447 19.7516 17.5155 19.0807 18.3354 19.0807C19.1553 19.0807 19.8261 19.7516 19.8261 20.5714C19.8261 21.3913 19.2298 22.0621 18.3354 22.0621ZM12.4472 7.08075V9.46584H9.98758V7.08075H12.4472ZM8.12422 7.08075V10.3602C8.12422 10.882 8.57143 11.3292 9.09317 11.3292H13.4162C13.9379 11.3292 14.3851 10.882 14.3851 10.3602V7.08075H17.5155V17.441C16.6211 17.7391 15.8012 18.3354 15.4286 19.1553H7.22981C6.78261 18.3354 6.03727 17.6646 5.14286 17.441V7.08075H8.12422ZM4.09938 22.0621C3.2795 22.0621 2.6087 21.3913 2.6087 20.5714C2.6087 19.7516 3.2795 19.0807 4.09938 19.0807C4.91925 19.0807 5.59006 19.7516 5.59006 20.5714C5.59006 21.3913 4.91925 22.0621 4.09938 22.0621Z" fill="#A2A9AD"/>
</svg>
