<svg width="24" height="24" viewBox="0 0 24 24" fill="none" xmlns="http://www.w3.org/2000/svg">
<g clip-path="url(#clip0)">
<path d="M21.6226 13.5H10.4996V2.37703C10.4996 1.96312 10.1631 1.61719 9.76182 1.61719C9.72948 1.61719 9.69619 1.61953 9.66291 1.62422C4.08151 2.41266 -0.185993 7.28578 0.00572536 13.1283C0.196507 18.9422 5.05791 23.8031 10.8714 23.9939C10.9974 23.9981 11.124 24 11.2496 24C16.9234 24 21.6039 19.7972 22.3754 14.3363C22.4378 13.8933 22.0698 13.5 21.6226 13.5ZM11.2496 22.5C11.1404 22.5 11.0303 22.4981 10.9206 22.4944C5.89369 22.3294 1.66979 18.1055 1.50479 13.0786C1.35151 8.39156 4.52073 4.32328 8.99963 3.27328V15H20.7254C19.6998 19.3327 15.7726 22.5 11.2496 22.5ZM13.5371 0.001875C13.5207 0.00046875 13.5043 0 13.4884 0C13.0824 0 12.7496 0.34875 12.7496 0.760781V11.25H23.2388C23.6673 11.25 24.0273 10.8895 23.9982 10.4625C23.6115 4.86281 19.1368 0.388125 13.5371 0.001875ZM14.2496 9.75V1.58906C18.4332 2.23641 21.7628 5.56641 22.4106 9.75H14.2496Z" fill="#A2A9AD"/>
</g>
<defs>
<clipPath id="clip0">
<rect width="24" height="24" fill="white"/>
</clipPath>
</defs>
</svg>
