<svg width="24" height="24" viewBox="0 0 24 24" fill="none" xmlns="http://www.w3.org/2000/svg">
<path d="M10.0015 0H0.571428C0.255841 0 0 0.255841 0 0.571429V10.0013C0 10.3169 0.255841 10.5727 0.571428 10.5727H10.0015C10.3171 10.5727 10.573 10.3169 10.573 10.0013V0.571429C10.5732 0.255841 10.3174 0 10.0015 0ZM9.43036 9.4301H1.14286V1.14286H9.43036V9.4301Z" fill="#A2A9AD" stroke="#A2A9AD" stroke-width="0.5"/>
<path d="M23.202 0H13.7711C13.4558 0 13.2 0.255841 13.2 0.571429V10.0013C13.2 10.3169 13.4558 10.5727 13.7711 10.5727H23.202C23.5173 10.5727 23.7734 10.3169 23.7734 10.0013V0.571429C23.7734 0.255841 23.5173 0 23.202 0ZM22.6303 9.4301H14.3428V1.14286H22.6306V9.4301H22.6303Z" fill="#A2A9AD" stroke="#A2A9AD" stroke-width="0.5"/>
<path d="M10.0015 13.4277H0.571428C0.255841 13.4277 0 13.6836 0 13.9989V23.429C0 23.7443 0.255841 24.0004 0.571428 24.0004H10.0015C10.3171 24.0004 10.573 23.7443 10.573 23.429V13.9989C10.5732 13.6836 10.3174 13.4277 10.0015 13.4277ZM9.43036 22.8573H1.14286V14.5703H9.43036V22.8573Z" fill="#A2A9AD" stroke="#A2A9AD" stroke-width="0.5"/>
<path d="M23.4286 13.4277H13.9977C13.6824 13.4277 13.4265 13.6836 13.4265 13.9989V23.429C13.4265 23.7443 13.6824 24.0004 13.9977 24.0004H23.4286C23.7439 24.0004 24 23.7443 24 23.429V13.9989C24 13.6836 23.7439 13.4277 23.4286 13.4277ZM22.8569 22.8573H14.5694V14.5703H22.8571V22.8573H22.8569Z" fill="#A2A9AD" stroke="#A2A9AD" stroke-width="0.5"/>
</svg>
