<svg width="24" height="24" viewBox="0 0 24 24" fill="none" xmlns="http://www.w3.org/2000/svg">
<g clip-path="url(#clip0)">
<path d="M10.2 5.01562V6.89062C10.2 7.20127 9.94809 7.45312 9.63745 7.45312H7.76245C7.45181 7.45312 7.19995 7.20127 7.19995 6.89062V5.01562C7.19995 4.70498 7.45181 4.45312 7.76245 4.45312H9.63745C9.94809 4.45312 10.2 4.70498 10.2 5.01562ZM15.6375 4.45312H13.7625C13.4518 4.45312 13.2 4.70498 13.2 5.01562V6.89062C13.2 7.20127 13.4518 7.45312 13.7625 7.45312H15.6375C15.9481 7.45312 16.2 7.20127 16.2 6.89062V5.01562C16.2 4.70498 15.9481 4.45312 15.6375 4.45312ZM9.63745 8.95312H7.76245C7.45181 8.95312 7.19995 9.20498 7.19995 9.51562V11.3906C7.19995 11.7013 7.45181 11.9531 7.76245 11.9531H9.63745C9.94809 11.9531 10.2 11.7013 10.2 11.3906V9.51562C10.2 9.20498 9.94809 8.95312 9.63745 8.95312ZM15.6375 8.95312H13.7625C13.4518 8.95312 13.2 9.20498 13.2 9.51562V11.3906C13.2 11.7013 13.4518 11.9531 13.7625 11.9531H15.6375C15.9481 11.9531 16.2 11.7013 16.2 11.3906V9.51562C16.2 9.20498 15.9481 8.95312 15.6375 8.95312ZM9.63745 13.4531H7.76245C7.45181 13.4531 7.19995 13.705 7.19995 14.0156V15.8906C7.19995 16.2013 7.45181 16.4531 7.76245 16.4531H9.63745C9.94809 16.4531 10.2 16.2013 10.2 15.8906V14.0156C10.2 13.705 9.94809 13.4531 9.63745 13.4531ZM15.6375 13.4531H13.7625C13.4518 13.4531 13.2 13.705 13.2 14.0156V15.8906C13.2 16.2013 13.4518 16.4531 13.7625 16.4531H15.6375C15.9481 16.4531 16.2 16.2013 16.2 15.8906V14.0156C16.2 13.705 15.9481 13.4531 15.6375 13.4531ZM22.2 23.0625V24H1.19995V23.0625C1.19995 22.7519 1.45181 22.5 1.76245 22.5H2.69995V1.125C2.69995 0.503672 3.20362 0 3.82495 0H19.575C20.1963 0 20.7 0.503672 20.7 1.125V22.5H21.6375C21.9481 22.5 22.2 22.7519 22.2 23.0625ZM19.2 22.5V1.5H4.19995V22.5H10.2V18.5156C10.2 18.205 10.4518 17.9531 10.7625 17.9531H12.6375C12.9481 17.9531 13.2 18.205 13.2 18.5156V22.5H19.2Z" fill="#A2A9AD"/>
</g>
<defs>
<clipPath id="clip0">
<rect width="21" height="24" fill="white" transform="translate(1.19995)"/>
</clipPath>
</defs>
</svg>
