<svg width="24" height="24" viewBox="0 0 24 24" fill="none" xmlns="http://www.w3.org/2000/svg">
<path d="M23.4256 14.094L21.8683 13.183C21.9662 12.3975 21.9662 11.6025 21.8683 10.817L23.4256 9.90597C23.8828 9.63849 24.1034 9.08813 23.953 8.57528C23.4175 6.74871 22.4643 5.10456 21.2055 3.75616C20.841 3.36567 20.2592 3.28022 19.7998 3.54896L18.2448 4.45855C17.6229 3.97892 16.9435 3.58092 16.223 3.27403V1.45399C16.223 0.915443 15.8576 0.447345 15.3403 0.323329C13.5427 -0.107752 11.6576 -0.107801 9.8596 0.323329C9.34237 0.447345 8.97691 0.915395 8.97691 1.45399V3.27403C8.25637 3.58091 7.57703 3.97891 6.95506 4.45855L5.4001 3.54896C4.94066 3.28022 4.35888 3.36567 3.99437 3.75616C2.73558 5.10456 1.78237 6.74876 1.24686 8.57528C1.09648 9.08813 1.31705 9.63844 1.77434 9.90597L3.3316 10.817C3.2337 11.6025 3.2337 12.3975 3.3316 13.183L1.77434 14.094C1.31705 14.3615 1.09648 14.9119 1.24686 15.4247C1.78237 17.2512 2.73558 18.8954 3.99437 20.2438C4.35893 20.6343 4.94071 20.7198 5.4001 20.4511L6.95506 19.5415C7.57703 20.0211 8.25637 20.4191 8.97691 20.726V22.546C8.97691 23.0846 9.34233 23.5527 9.8596 23.6767C11.6573 24.1078 13.5423 24.1078 15.3403 23.6767C15.8575 23.5527 16.223 23.0846 16.223 22.546V20.726C16.9435 20.4191 17.6229 20.0211 18.2448 19.5415L19.7998 20.4511C20.2592 20.7198 20.841 20.6344 21.2055 20.2438C22.4643 18.8954 23.4175 17.2512 23.953 15.4247C24.1034 14.9119 23.8828 14.3616 23.4256 14.094ZM20.2987 18.9551L18.0872 17.6612C16.7985 18.7775 16.3414 19.0584 14.6949 19.6479V22.2356C13.3128 22.5245 11.8871 22.5245 10.505 22.2356V19.6479C8.8995 19.0731 8.43467 18.8062 7.11265 17.6612L4.90122 18.9551C3.95999 17.8862 3.24469 16.633 2.80344 15.2797L5.01583 13.9858C4.70376 12.2721 4.70361 11.7288 5.01583 10.0142L2.80344 8.72034C3.24469 7.367 3.96004 6.11377 4.90122 5.04442L7.11265 6.33926C8.42001 5.20535 8.88255 4.93288 10.505 4.35205V1.7644C11.887 1.47504 13.3129 1.47504 14.6949 1.7644V4.35209C16.3174 4.93298 16.78 5.2055 18.0872 6.33931L20.2987 5.04447C21.2399 6.11377 21.9552 7.367 22.3965 8.72039L20.1841 10.0143C20.4962 11.7284 20.4963 12.2712 20.1841 13.9858L22.3965 15.2797C21.9552 16.633 21.2399 17.8862 20.2987 18.9551ZM12.6 7.35486C10.0721 7.35486 8.01558 9.43865 8.01558 12C8.01558 14.5614 10.0721 16.6452 12.6 16.6452C15.1278 16.6452 17.1843 14.5614 17.1843 12C17.1843 9.43865 15.1278 7.35486 12.6 7.35486ZM12.6 15.0968C10.9147 15.0968 9.5437 13.7076 9.5437 12C9.5437 10.2924 10.9147 8.90325 12.6 8.90325C14.2852 8.90325 15.6562 10.2924 15.6562 12C15.6562 13.7076 14.2852 15.0968 12.6 15.0968Z" fill="#A2A9AD"/>
</svg>
