<svg width="24" height="24" viewBox="0 0 24 24" fill="none" xmlns="http://www.w3.org/2000/svg">
<g clip-path="url(#clip0)">
<path d="M10.0502 20.9986V20.9486H10.0002H8.50022H8.45022V20.9986C8.45022 22.6813 9.81884 24.05 11.5002 24.05C13.1816 24.05 14.5502 22.6813 14.5502 20.9986V20.9486H14.5002H13.0002H12.9502V20.9986C12.9502 21.7984 12.3004 22.45 11.5002 22.45C10.7001 22.45 10.0502 21.7984 10.0502 20.9986ZM21.3494 15.658C20.6963 15.0362 20.124 14.4037 19.7134 13.3775C19.3024 12.35 19.0521 10.924 19.0521 8.71406C19.0521 4.97018 16.0825 1.9174 12.3002 1.52742V0.75C12.3002 0.308011 11.9422 -0.05 11.5002 -0.05C11.0582 -0.05 10.7002 0.308011 10.7002 0.75V1.52789C6.91794 1.91786 3.94835 4.97017 3.94835 8.71406C3.94835 10.9238 3.69796 12.3498 3.28677 13.3774C2.87613 14.4035 2.30366 15.0362 1.65059 15.658C0.981019 16.2955 0.769445 17.2598 1.1113 18.1142C1.46026 18.9866 2.3001 19.55 3.25022 19.55H19.7502C20.7004 19.55 21.5402 18.9861 21.8891 18.1137C22.231 17.2593 22.0189 16.2954 21.3494 15.658ZM3.25022 17.95C2.62311 17.95 2.32082 17.2295 2.75408 16.817C3.57411 16.0362 4.27414 15.2062 4.76817 13.9712C5.2618 12.7373 5.54835 11.1027 5.54835 8.71453C5.54835 5.58599 8.20816 3.05 11.5002 3.05C14.7918 3.05 17.4521 5.58553 17.4521 8.71406C17.4521 11.0931 17.7362 12.7254 18.2286 13.9605C18.7213 15.1966 19.4213 16.0313 20.2463 16.8165C20.6813 17.2311 20.3749 17.95 19.7502 17.95H3.25022Z" fill="#A2A9AD" stroke="#A2A9AD" stroke-width="0.1"/>
</g>
<defs>
<clipPath id="clip0">
<rect width="24" height="24" fill="white"/>
</clipPath>
</defs>
</svg>
