<svg width="24" height="24" viewBox="0 0 24 24" fill="none" xmlns="http://www.w3.org/2000/svg">
<path d="M12 -0.15H12C9.59696 -0.15 7.24788 0.562585 5.24983 1.89764C3.25177 3.2327 1.69447 5.13027 0.774869 7.35039C-0.144736 9.57052 -0.385346 12.0135 0.0834642 14.3703C0.552274 16.7272 1.70945 18.8921 3.40866 20.5913C5.10786 22.2906 7.27279 23.4477 9.62966 23.9165C11.9865 24.3853 14.4295 24.1447 16.6496 23.2251C18.8697 22.3055 20.7673 20.7482 22.1024 18.7502C23.4374 16.7521 24.15 14.403 24.15 12V12C24.1493 8.77782 22.869 5.68785 20.5906 3.40944C18.3122 1.13104 15.2222 -0.149275 12 -0.15ZM11.9998 22.6001C9.90336 22.6 7.85404 21.9783 6.11093 20.8136C4.36776 19.6489 3.00912 17.9934 2.20683 16.0565C1.40454 14.1196 1.19462 11.9882 1.60363 9.93203C2.01263 7.87582 3.02219 5.98707 4.50463 4.50463C5.98708 3.02218 7.87582 2.01263 9.93203 1.60362C11.9882 1.19462 14.1196 1.40453 16.0565 2.20682C17.9934 3.00912 19.6489 4.36775 20.8136 6.11092C21.9783 7.85403 22.6 9.90336 22.6001 11.9998C22.5958 14.8098 21.4777 17.5036 19.4906 19.4906C17.5036 21.4777 14.8098 22.5958 11.9998 22.6001Z" fill="#A2A9AD" stroke="#A2A9AD" stroke-width="0.3"/>
<path d="M12.0572 8.99187C11.8695 8.99187 11.6819 9.02439 11.4943 9.08943C10.8188 9.31707 10.7437 9.93496 11.3066 10.3252C11.6069 10.5203 11.9071 10.6504 12.2448 10.7805L12.2448 10.7805C12.8077 10.9756 13.3706 11.1707 13.9335 11.4309C15.6597 12.2764 16.1476 14.1626 14.9092 15.4634C14.4589 15.9187 13.896 16.2439 13.2205 16.4065C12.9203 16.4715 12.8077 16.6016 12.8077 16.8618V17.6423C12.8077 17.8699 12.6576 18 12.3949 18H11.8695H11.4192C11.1565 18 11.0064 17.8374 11.0064 17.6098V17.0244C11.0064 16.6341 10.9689 16.6016 10.5186 16.5366C9.91816 16.4715 9.35527 16.3415 8.79237 16.1138C8.37958 15.9512 8.34205 15.8537 8.45463 15.4634C8.56721 15.1707 8.64227 14.878 8.75485 14.5854C8.8299 14.3902 8.90495 14.2927 9.01753 14.2927C9.09258 14.2927 9.20516 14.3252 9.31774 14.3902C9.91816 14.6504 10.5561 14.813 11.2316 14.878C11.3442 14.9106 11.4567 14.9106 11.5693 14.9106C11.8695 14.9106 12.1697 14.8455 12.47 14.748C13.2205 14.4553 13.3331 13.7073 12.6951 13.252C12.47 13.0894 12.2448 12.9919 11.9821 12.8943C11.3442 12.6667 10.6312 12.4715 10.0307 12.1463C9.01753 11.626 8.37958 10.9431 8.45463 9.86992C8.56721 8.66666 9.31774 7.9187 10.5936 7.52846C11.119 7.36585 11.119 7.39837 11.119 6.91057V6.42276C11.119 6.06504 11.1941 6 11.6069 6H11.757H11.9821H12.0947C12.8828 6 12.8828 6.03252 12.8828 6.74797C12.8828 7.26829 12.8828 7.26829 13.4832 7.36585C13.9335 7.43089 14.3838 7.56097 14.8341 7.72358C15.0968 7.82114 15.1719 7.95122 15.0968 8.17886L14.7591 9.15447C14.684 9.34959 14.6465 9.44715 14.4964 9.44715C14.4213 9.44715 14.3088 9.44715 14.1962 9.38211C13.5958 9.12195 12.9953 8.99187 12.3199 8.99187H12.0572Z" fill="#A2A9AD"/>
</svg>
