<svg width="24" height="24" viewBox="0 0 24 24" fill="none" xmlns="http://www.w3.org/2000/svg">
<path d="M14.5795 5.17851L14.2481 5.53753C14.0284 5.77549 14.0284 6.16133 14.2481 6.39934L18.1822 10.6367H0.562501C0.25186 10.6367 0 10.9096 0 11.2461V11.7539C0 12.0905 0.25186 12.3633 0.562501 12.3633H18.1822L14.2481 16.6007C14.0284 16.8387 14.0284 17.2245 14.2481 17.4625L14.5795 17.8215C14.7992 18.0595 15.1554 18.0595 15.375 17.8215L20.8353 11.9309C21.0549 11.6929 21.0549 11.3071 20.8353 11.0691L15.375 5.17851C15.1554 4.9405 14.7992 4.9405 14.5795 5.17851Z" fill="#A2A9AD"/>
<line x1="23" y1="2" x2="23" y2="21" stroke="#A2A9AD" stroke-width="2" stroke-linecap="round" stroke-linejoin="round"/>
</svg>
