<svg id="SvgjsSvg1001" width="288" height="288" xmlns="http://www.w3.org/2000/svg" version="1.1" xmlns:xlink="http://www.w3.org/1999/xlink" xmlns:svgjs="http://svgjs.com/svgjs"><defs id="SvgjsDefs1002"></defs><g id="SvgjsG1008" transform="matrix(1,0,0,1,0,0)"><svg xmlns="http://www.w3.org/2000/svg" width="288" height="288" version="1.0" viewBox="0 0 512 512"><path d="M1930 5109 c-494 -51 -951 -269 -1306 -623 -246 -246 -412 -514 -518-836 -141 -428 -141 -872 0 -1300 106 -323 273 -592 520 -837 488 -485 1153
-705 1839 -608 353 50 707 195 985 404 30 23 57 40 61 39 4 -2 307 -298 673
-658 417 -410 680 -661 704 -672 98 -46 208 12 228 120 16 84 72 24 -1024
1106 l-342 338 58 68 c250 289 415 655 478 1055 24 156 24 442 0 600 -71 459
-272 853 -607 1186 -460 457 -1101 684 -1749 618z m479 -335 c404 -59 759
-235 1040 -515 344 -345 523 -774 523 -1259 0 -179 -16 -302 -58 -457 -212
-788 -931 -1333 -1759 -1333 -493 0 -951 187 -1293 529 -232 232 -387 500
-471 811 -74 277 -74 623 0 900 168 626 665 1119 1292 1281 228 59 507 76 726
43z" transform="matrix(.1 0 0 -.1 0 512)" fill="#a2a9ad" class="color000 svgShape"></path></svg></g></svg>